HIERARCHY
ROOT Hips
{
	OFFSET 0.00000 0.00000 0.00000
	CHANNELS 6 Xposition Yposition Zposition Zrotation Yrotation Xrotation 
	JOINT LHipJoint
	{
		OFFSET 0 0 0
		CHANNELS 3 Zrotation Yrotation Xrotation
		JOINT LeftUpLeg
		{
			OFFSET 1.55766 -1.60504 1.11378
			CHANNELS 3 Zrotation Yrotation Xrotation
			JOINT LeftLeg
			{
				OFFSET 2.29047 -6.29302 0.00000
				CHANNELS 3 Zrotation Yrotation Xrotation
				JOINT LeftFoot
				{
					OFFSET 2.52265 -6.93093 0.00000
					CHANNELS 3 Zrotation Yrotation Xrotation
					JOINT LeftToeBase
					{
						OFFSET 0.17633 -0.48446 2.02656
						CHANNELS 3 Zrotation Yrotation Xrotation
						End Site
						{
							OFFSET 0.00000 -0.00000 1.04989
						}
					}
				}
			}
		}
	}
	JOINT RHipJoint
	{
		OFFSET 0 0 0
		CHANNELS 3 Zrotation Yrotation Xrotation
		JOINT RightUpLeg
		{
			OFFSET -1.48599 -1.60504 1.11378
			CHANNELS 3 Zrotation Yrotation Xrotation
			JOINT RightLeg
			{
				OFFSET -2.27280 -6.24448 0.00000
				CHANNELS 3 Zrotation Yrotation Xrotation
				JOINT RightFoot
				{
					OFFSET -2.50834 -6.89161 0.00000
					CHANNELS 3 Zrotation Yrotation Xrotation
					JOINT RightToeBase
					{
						OFFSET -0.26967 -0.74090 2.08741
						CHANNELS 3 Zrotation Yrotation Xrotation
						End Site
						{
							OFFSET -0.00000 -0.00000 1.10614
						}
					}
				}
			}
		}
	}
	JOINT LowerBack
	{
		OFFSET 0 0 0
		CHANNELS 3 Zrotation Yrotation Xrotation
		JOINT Spine
		{
			OFFSET 0.06481 2.02437 -0.08472
			CHANNELS 3 Zrotation Yrotation Xrotation
			JOINT Spine1
			{
				OFFSET 0.00015 1.96711 0.18069
				CHANNELS 3 Zrotation Yrotation Xrotation
				JOINT Neck
				{
					OFFSET 0 0 0
					CHANNELS 3 Zrotation Yrotation Xrotation
					JOINT Neck1
					{
						OFFSET -0.29961 1.68293 -0.13041
						CHANNELS 3 Zrotation Yrotation Xrotation
						JOINT Head
						{
							OFFSET 0.59697 1.61501 -0.14669
							CHANNELS 3 Zrotation Yrotation Xrotation
							End Site
							{
								OFFSET 0.22973 1.74906 -0.10148
							}
						}
					}
				}
				JOINT LeftShoulder
				{
					OFFSET 0 0 0
					CHANNELS 3 Zrotation Yrotation Xrotation
					JOINT LeftArm
					{
						OFFSET 3.37968 1.02893 0.31147
						CHANNELS 3 Zrotation Yrotation Xrotation
						JOINT LeftForeArm
						{
							OFFSET 5.19807 -0.00000 -0.00000
							CHANNELS 3 Zrotation Yrotation Xrotation
							JOINT LeftHand
							{
								OFFSET 3.09370 -0.00000 -0.00000
								CHANNELS 3 Zrotation Yrotation Xrotation
								JOINT LeftFingerBase
								{
									OFFSET 0 0 0
									CHANNELS 3 Zrotation Yrotation Xrotation
									JOINT LeftHandIndex1
									{
										OFFSET 0.67263 -0.00000 -0.00000
										CHANNELS 3 Zrotation Yrotation Xrotation
										End Site
										{
											OFFSET 0.54229 -0.00000 -0.00000
										}
									}
								}
								JOINT LThumb
								{
									OFFSET 0 0 0
									CHANNELS 3 Zrotation Yrotation Xrotation
									End Site
									{
										OFFSET 0.55057 -0.00000 0.55057
									}
								}
							}
						}
					}
				}
				JOINT RightShoulder
				{
					OFFSET 0 0 0
					CHANNELS 3 Zrotation Yrotation Xrotation
					JOINT RightArm
					{
						OFFSET -3.38254 0.96355 -0.16120
						CHANNELS 3 Zrotation Yrotation Xrotation
						JOINT RightForeArm
						{
							OFFSET -5.45222 -0.00000 -0.00000
							CHANNELS 3 Zrotation Yrotation Xrotation
							JOINT RightHand
							{
								OFFSET -3.01284 -0.00000 -0.00000
								CHANNELS 3 Zrotation Yrotation Xrotation
								JOINT RightFingerBase
								{
									OFFSET 0 0 0
									CHANNELS 3 Zrotation Yrotation Xrotation
									JOINT RightHandIndex1
									{
										OFFSET -0.62230 -0.00000 -0.00000
										CHANNELS 3 Zrotation Yrotation Xrotation
										End Site
										{
											OFFSET -0.50171 -0.00000 -0.00000
										}
									}
								}
								JOINT RThumb
								{
									OFFSET 0 0 0
									CHANNELS 3 Zrotation Yrotation Xrotation
									End Site
									{
										OFFSET -0.50937 -0.00000 0.50937
									}
								}
							}
						}
					}
				}
			}
		}
	}
}
MOTION
Frames: 11
Frame Time: .0083333
-7.5742 16.4954 -4.5339 -180.6560 8.1830 -172.2420 0.0000 0.0000 0.0000 -21.7503 -8.8093 -28.2812 2.9275 10.5768 30.8655 0.0965 -10.9719 -9.0831 0.2143 -2.9802 -8.2236 0.0000 0.0000 0.0000 18.7376 6.1379 -8.7461 -8.3221 -16.3511 53.7147 0.5320 13.8257 10.7310 -1.4212 7.5390 -21.3224 0.6081 3.3351 -2.1014 -1.7609 4.9728 -7.2428 -2.3510 2.6216 -6.1396 -31.0211 -5.3252 22.5639 39.7865 -18.5658 -4.4033 20.8399 -12.7756 2.1478 0.0000 -0.0000 0.0000 -85.9341 20.3768 25.9625 15.7836 -25.2263 -3.5532 -0.0000 0.0000 -35.7902 12.9751 -8.5370 -1.9590 -7.1250 0.0000 -0.0000 -10.0220 21.2752 5.7900 0.0000 -0.0000 0.0000 91.1447 -8.5891 13.6109 -10.8813 18.1061 -1.7389 0.0000 0.0000 32.3250 -2.2519 0.8289 -0.0326 7.1250 -0.0000 -0.0000 18.7326 -28.8885 7.7342
-7.5859 16.4971 -4.6723 -181.1410 8.4532 -172.5250 0.0000 0.0000 0.0000 -22.5589 -8.2288 -27.4644 2.8845 10.5056 30.6301 0.1159 -11.1529 -9.4496 0.2077 -2.9344 -8.0963 0.0000 0.0000 0.0000 18.0888 6.4546 -10.2032 -8.8826 -16.7316 55.6832 0.5440 13.2648 8.0631 -1.4788 7.6837 -21.7573 0.0932 3.2946 -1.7520 -1.8257 4.8841 -7.1418 -2.1527 2.5934 -6.2699 -31.0837 -5.3035 22.3735 39.7575 -18.4493 -4.4134 20.8349 -12.6898 2.1339 -0.0000 -0.0000 0.0000 -85.8565 20.1490 26.4488 15.9303 -25.4261 -3.6160 -0.0000 0.0000 -35.9458 13.1008 -8.5251 -1.9759 -7.1250 0.0000 -0.0000 -9.9324 21.2822 5.7351 -0.0000 -0.0000 0.0000 90.8915 -8.6539 14.0967 -10.9182 18.1628 -1.7503 0.0000 0.0000 32.1598 -2.1983 0.8476 -0.0325 7.1250 -0.0000 -0.0000 18.7693 -28.8694 7.7600
-7.5971 16.4959 -4.8087 -181.6510 8.6630 -172.8140 0.0000 0.0000 0.0000 -23.3820 -7.6634 -26.6694 2.8446 10.4391 30.4107 0.1324 -11.3809 -9.7950 0.2022 -2.8957 -7.9886 0.0000 0.0000 0.0000 17.4216 6.7038 -11.6984 -9.4193 -17.0701 57.5293 0.5212 12.6877 5.4469 -1.5111 7.7633 -21.9974 -0.4371 3.2359 -1.4053 -1.8987 4.7679 -7.0369 -1.9523 2.5530 -6.3958 -31.1470 -5.2775 22.1869 39.7391 -18.3315 -4.4259 20.8378 -12.6058 2.1197 -0.0000 0.0000 0.0000 -85.7521 19.8975 26.9769 16.0818 -25.6314 -3.6813 -0.0000 0.0000 -36.0340 13.2950 -8.4808 -1.9959 -7.1250 0.0000 -0.0000 -9.7949 21.3189 5.6451 -0.0000 0.0000 0.0000 90.6439 -8.7039 14.5903 -10.9664 18.2367 -1.7654 0.0000 0.0000 31.9423 -2.2700 0.8468 -0.0336 7.1250 -0.0000 -0.0000 18.7160 -28.8719 7.7345
-7.6074 16.4923 -4.9431 -182.1720 8.8041 -173.0870 0.0000 0.0000 0.0000 -24.2021 -7.1301 -25.9182 2.8094 10.3798 30.2158 0.1458 -11.6510 -10.1158 0.2001 -2.8801 -7.9451 0.0000 0.0000 0.0000 16.7491 6.9023 -13.2369 -9.9234 -17.3665 59.2320 0.4718 12.1506 2.9521 -1.5160 7.7754 -22.0338 -0.9740 3.1570 -1.0688 -1.9779 4.6236 -6.9408 -1.7523 2.5005 -6.5251 -31.2099 -5.2478 22.0094 39.7293 -18.2171 -4.4359 20.8468 -12.5264 2.1070 0.0000 0.0000 0.0000 -85.6186 19.6188 27.5037 16.2142 -25.8102 -3.7387 -0.0000 0.0000 -36.0519 13.4713 -8.4818 -2.0236 -7.1250 0.0000 -0.0000 -9.6683 21.3105 5.5718 0.0000 0.0000 0.0000 90.4106 -8.7356 15.0462 -11.0166 18.3137 -1.7811 0.0000 0.0000 31.7158 -2.4589 0.8259 -0.0355 7.1250 -0.0000 -0.0000 18.5786 -28.8962 7.6604
-7.6168 16.4870 -5.0759 -182.6590 8.8783 -173.3230 0.0000 0.0000 0.0000 -24.9667 -6.6472 -25.2314 2.7825 10.3344 30.0665 0.1573 -11.9496 -10.4233 0.1995 -2.8760 -7.9337 0.0000 0.0000 0.0000 16.1226 7.0770 -14.8087 -10.3831 -17.6197 60.7614 0.4013 11.6574 0.6347 -1.5030 7.7434 -21.9374 -1.4719 3.0621 -0.7657 -2.0524 4.4593 -6.8556 -1.5648 2.4379 -6.6433 -31.2705 -5.2114 21.8546 39.7302 -18.1028 -4.4528 20.8653 -12.4512 2.0895 0.0000 0.0000 0.0000 -85.4622 19.3057 28.0007 16.3138 -25.9442 -3.7822 -0.0000 0.0000 -36.0092 13.5654 -8.5966 -2.0656 -7.1250 0.0000 -0.0000 -9.5961 21.1903 5.5555 0.0000 0.0000 0.0000 90.1921 -8.7637 15.4629 -11.0759 18.4045 -1.7998 0.0000 0.0000 31.4734 -2.7626 0.7833 -0.0378 7.1250 -0.0000 -0.0000 18.3591 -28.9438 7.5386
-7.6251 16.4806 -5.2066 -183.0780 8.8833 -173.4940 0.0000 0.0000 0.0000 -25.6316 -6.2334 -24.6428 2.7679 10.3095 29.9848 0.1677 -12.2744 -10.7271 0.1993 -2.8749 -7.9308 0.0000 0.0000 0.0000 15.5832 7.2515 -16.4245 -10.7899 -17.8307 62.0974 0.3160 11.1961 -1.4659 -1.4818 7.6912 -21.7799 -1.9007 2.9532 -0.5104 -2.1143 4.2807 -6.7864 -1.3978 2.3668 -6.7456 -31.3188 -5.1776 21.7094 39.7309 -17.9944 -4.4681 20.8810 -12.3804 2.0718 -0.0000 -0.0000 0.0000 -85.2850 18.9523 28.4500 16.3851 -26.0400 -3.8135 -0.0000 0.0000 -35.9335 13.5777 -8.7938 -2.1145 -7.1250 0.0000 -0.0000 -9.5794 20.9900 5.5896 -0.0000 -0.0000 0.0000 89.9939 -8.7845 15.8220 -11.1415 18.5049 -1.8206 0.0000 0.0000 31.2393 -3.1920 0.7236 -0.0404 7.1250 -0.0000 -0.0000 18.0478 -29.0106 7.3679
-7.6323 16.4742 -5.3366 -183.3630 8.8178 -173.5940 0.0000 0.0000 0.0000 -26.1288 -5.8951 -24.1497 2.7692 10.3117 29.9921 0.1794 -12.6134 -11.0516 0.1984 -2.8680 -7.9115 0.0000 0.0000 0.0000 15.2064 7.4329 -18.0471 -11.1318 -17.9990 63.2088 0.2220 10.7586 -3.3459 -1.4648 7.6489 -21.6526 -2.1952 2.8309 -0.3158 -2.1436 4.0914 -6.7288 -1.2655 2.2847 -6.8161 -31.3612 -5.1471 21.5724 39.7312 -17.8954 -4.4785 20.8942 -12.3154 2.0570 0.0000 -0.0000 0.0000 -85.0991 18.5466 28.8615 16.4202 -26.0872 -3.8289 -0.0000 0.0000 -35.8600 13.5274 -9.0991 -2.1788 -7.1250 0.0000 -0.0000 -9.6037 20.6832 5.6717 0.0000 -0.0000 0.0000 89.8128 -8.7935 16.1125 -11.2136 18.6149 -1.8435 0.0000 0.0000 31.0062 -3.7182 0.6508 -0.0423 7.1250 -0.0000 -0.0000 17.6652 -29.0920 7.1609
-7.6388 16.4680 -5.4670 -183.5020 8.6917 -173.6240 0.0000 0.0000 0.0000 -26.4494 -5.6206 -23.7472 2.7875 10.3429 30.0945 0.1939 -12.9656 -11.4090 0.1962 -2.8522 -7.8675 0.0000 0.0000 0.0000 15.0029 7.6234 -19.6586 -11.4026 -18.1265 64.0823 0.1262 10.3466 -4.9898 -1.4484 7.6076 -21.5285 -2.3392 2.6990 -0.1942 -2.1370 3.8982 -6.6777 -1.1730 2.1939 -6.8421 -31.4004 -5.1200 21.4436 39.7303 -17.8055 -4.4844 20.9052 -12.2558 2.0452 -0.0000 0.0000 0.0000 -84.9113 18.0820 29.2564 16.4239 -26.0921 -3.8305 -0.0000 0.0000 -35.7388 13.5189 -9.3800 -2.2440 -7.1250 0.0000 -0.0000 -9.5995 20.3992 5.7314 -0.0000 0.0000 0.0000 89.6489 -8.7997 16.3386 -11.3002 18.7470 -1.8713 0.0000 0.0000 30.7606 -4.3148 0.5603 -0.0423 7.1250 -0.0000 -0.0000 17.2310 -29.1917 6.9261
-7.6443 16.4623 -5.5977 -183.4890 8.5104 -173.5920 0.0000 0.0000 0.0000 -26.5872 -5.3942 -23.4260 2.8214 10.4001 30.2825 0.2111 -13.3329 -11.7986 0.1916 -2.8189 -7.7749 0.0000 0.0000 0.0000 14.9827 7.8276 -21.2435 -11.5997 -18.2162 64.7141 0.0327 9.9574 -6.4169 -1.4390 7.5840 -21.4575 -2.3295 2.5595 -0.1369 -2.0908 3.7033 -6.6269 -1.1194 2.0943 -6.8225 -31.4355 -5.1004 21.3113 39.7297 -17.7281 -4.4841 20.9122 -12.2025 2.0406 -0.0000 -0.0000 0.0000 -84.7215 17.5631 29.6578 16.4163 -26.0819 -3.8272 -0.0000 0.0000 -35.5936 13.5873 -9.5862 -2.3049 -7.1250 0.0000 -0.0000 -9.5438 20.1871 5.7433 -0.0000 -0.0000 0.0000 89.5009 -8.7906 16.4956 -11.3973 18.8947 -1.9026 0.0000 0.0000 30.4963 -4.9700 0.4596 -0.0400 7.1250 -0.0000 -0.0000 16.7525 -29.3025 6.6713
-7.6490 16.4571 -5.7291 -183.3550 8.2862 -173.5210 0.0000 0.0000 0.0000 -26.5812 -5.1981 -23.1506 2.8661 10.4751 30.5295 0.2317 -13.7077 -12.2204 0.1855 -2.7737 -7.6494 0.0000 0.0000 0.0000 15.1080 8.0382 -22.7823 -11.7250 -18.2720 65.1144 -0.0556 9.5998 -7.6568 -1.4319 7.5662 -21.4040 -2.2006 2.4148 -0.1198 -2.0112 3.5081 -6.5786 -1.0943 1.9887 -6.7767 -31.4717 -5.0863 21.1793 39.7254 -17.6645 -4.4700 20.9142 -12.1561 2.0450 -0.0000 -0.0000 0.0000 -84.5312 16.9963 30.0715 16.3894 -26.0458 -3.8153 -0.0000 0.0000 -35.4372 13.7312 -9.7051 -2.3588 -7.1250 0.0000 -0.0000 -9.4376 20.0596 5.7051 -0.0000 -0.0000 0.0000 89.3688 -8.7788 16.5787 -11.5051 19.0584 -1.9377 0.0000 0.0000 30.2059 -5.6603 0.3462 -0.0343 7.1250 -0.0000 -0.0000 16.2473 -29.4264 6.4042
-7.6529 16.4521 -5.8614 -183.1610 8.0365 -173.4440 0.0000 0.0000 0.0000 -26.5011 -5.0058 -22.8847 2.9157 10.5573 30.8010 0.2550 -14.0921 -12.6674 0.1782 -2.7192 -7.4980 0.0000 0.0000 0.0000 15.3092 8.2523 -24.2602 -11.7847 -18.2982 65.3049 -0.1379 9.2831 -8.7437 -1.4308 7.5632 -21.3951 -2.0160 2.2678 -0.1270 -1.9112 3.3128 -6.5253 -1.0776 1.8801 -6.7097 -32.8982 -8.6356 21.2133 39.0983 -16.9719 -1.9451 20.7527 -9.9555 2.8953 -0.0000 0.0000 0.0000 -84.3474 16.4080 30.4840 16.3628 -26.0100 -3.8037 -0.0000 0.0000 -35.2886 13.9196 -9.7882 -2.4127 -7.1250 0.0000 -0.0000 -9.3012 19.9657 5.6403 -0.0000 0.0000 0.0000 89.2456 -8.7773 16.6171 -11.6285 19.2451 -1.9781 0.0000 0.0000 29.8436 -6.3814 0.2281 -0.0255 7.1250 -0.0000 -0.0000 15.7170 -29.5554 6.1295
